# xmcd CD database file
#
# Track frame offsets:
#	150
#	10690
#	32682
#	52659
#	73725
#	96893
#	119548
#	150245
#	172999
#	195885
#	217759
#	236210
#	261643
#	278069
#	301087
#	320126
#
# Disc length: 4527 seconds
#
# Revision: 0
# Processed by: cddbd v1.4PL0 Copyright (c) Steve Scherf et al.
# Submitted via: CDex 1.50
#
DISCID=cf11ad10
DTITLE=Varios - Los Caballeros de la Salsa
DYEAR=2001
DGENRE=Salsa
TTITLE0=Intro
TTITLE1=Lluvia
TTITLE2=Vestida de Blanco
TTITLE3=Mia
TTITLE4=Seda
TTITLE5=Me fallaste
TTITLE6=El gran baron
TTITLE7=Raquel
TTITLE8=Fue su primera vez
TTITLE9=Maria Luisa
TTITLE10=Que bello
TTITLE11=Entre la espada y la pared
TTITLE12=Guede Zaina
TTITLE13=Si supieras
TTITLE14=Verdades
TTITLE15=Amantes de otro tiempo
EXTD=YEAR: 2001
EXTT0=
EXTT1=
EXTT2=
EXTT3=
EXTT4=
EXTT5=
EXTT6=
EXTT7=
EXTT8=
EXTT9=
EXTT10=
EXTT11=
EXTT12=
EXTT13=
EXTT14=
EXTT15=
PLAYORDER=
